<svg width="49" height="82" viewBox="0 0 49 82" fill="none" xmlns="http://www.w3.org/2000/svg">
<path d="M32.7817 56.0109C30.7878 65.5731 34.0381 72.7976 37.4147 78.4476C38.4571 80.1921 39.4098 81.6462 36.1881 81.5796C32.967 81.5124 31.2111 74.6545 24.3676 74.5549C17.4356 74.5549 15.4567 81.1 13.1649 81.3774C10.8738 81.6548 9.61431 80.924 11.3648 78.0706C16.4907 69.7145 18.975 55.5776 16.2114 56.5015L17.3645 53.3426L17.0924 51.7515L16.404 52.2208L14.4035 49.06L15.3801 47.8942C25.7814 52.5636 29.1024 48.2205 34.7325 46.8164C35.977 47.9847 36.2719 49.0753 36.2916 49.6655C36.3096 50.2564 38.2287 52.9839 37.6492 53.4489C37.5044 53.565 38.5271 57.4968 38.1659 57.3759C38.075 57.3453 37.8388 60.2213 37.5284 60.3172C37.218 60.4138 35.928 63.1407 35.5411 63.2763C35.3479 63.3442 33.2589 65.5994 32.7793 65.2328C32.5394 65.0495 32.2057 63.9986 32.4079 63.211C32.61 62.4234 33.3486 61.8998 33.269 61.9218C32.9497 62.0091 34.7821 58.3516 34.6739 58.3052C34.2415 58.1182 34.76 55.0284 34.4018 54.9477C34.0435 54.8677 33.7583 52.3858 33.6201 52.5837C33.0669 53.3744 32.683 54.4418 32.7817 56.0109Z" fill="white"/>
<path d="M21.2273 49.856L22.4073 58.3844C22.4073 58.3844 21.6429 59.4787 21.3146 58.5854C20.9869 57.6921 19.3477 50.3026 19.3477 50.3026L19.7417 49.3867L21.2273 49.856Z" fill="#D9D9D9"/>
<path d="M23.695 50.3523C13.8813 50.3098 5.95956 42.1473 6.00124 32.121C6.04293 22.0948 14.0323 14.0014 23.846 14.044C33.6597 14.0866 41.5814 22.249 41.5398 32.2753C41.4981 42.3015 33.5087 50.3949 23.695 50.3523Z" fill="white"/>
<path d="M18.5166 15.2762C21.227 14.4043 23.908 14.075 26.4073 14.4703C28.9059 14.8657 31.4405 15.8726 33.4242 17.1802C35.3948 18.4798 37.2135 20.2236 38.5017 22.1611C39.1458 23.1295 39.7899 24.2788 40.2349 25.3463C40.6804 26.4137 40.7976 27.4805 41.0285 28.609C41.4991 30.9033 41.4884 33.417 41.0644 35.6924C40.6398 37.9709 39.7092 40.2615 38.4563 42.2229C37.2028 44.1848 35.478 45.9867 33.5134 47.334C31.5434 48.6849 29.1524 49.3124 26.5515 49.7364C37.4964 45.4197 40.0375 35.9509 37.936 27.9889C35.8057 19.9175 27.8247 13.5666 18.5166 15.2762Z" fill="#D9D9D9"/>
<path d="M40.6685 27.5592C28.5107 19.1212 13.8536 22.1127 7.9849 24.7669C7.90775 24.5304 7.83718 24.2934 7.77319 24.0557C7.74328 23.9365 7.84792 23.8034 7.821 23.6842C7.7911 23.5651 7.62965 23.4593 7.60513 23.3396C7.55728 23.1001 7.51422 22.86 7.48073 22.6192C7.44485 22.3779 7.42095 22.1359 7.4048 21.8933C7.38686 21.6501 7.38086 21.4064 7.38086 21.1613C7.38086 20.9169 7.39285 20.6713 7.41079 20.4245C7.42873 20.1776 7.45858 19.9296 7.50044 19.6803C7.5423 19.4316 7.59019 19.1817 7.65119 18.93C11.4751 17.1996 27.4634 13.049 40.7384 21.2047C41.5081 23.4716 41.5464 25.2087 40.6685 27.5592Z" fill="#D9D9D9"/>
<path d="M13.3955 31.4999C12.99 31.4982 12.6626 31.1769 12.6642 30.7823C12.6659 30.3877 12.9959 30.0693 13.4015 30.071C13.807 30.0728 14.1344 30.3941 14.1328 30.7887C14.1311 31.1832 13.8011 31.5017 13.3955 31.4999Z" fill="#D87B09"/>
<path d="M26.4502 31.5585C26.0447 31.5568 25.7173 31.2355 25.7189 30.8409C25.7206 30.4463 26.0506 30.1279 26.4562 30.1296C26.8617 30.1314 27.1891 30.4527 27.1875 30.8473C27.1858 31.2418 26.8557 31.5603 26.4502 31.5585Z" fill="#D87B09"/>
<path d="M40.7747 26.4878C41.3196 24.6877 41.7537 22.8162 40.9559 20.2439C50.8531 21.3858 51.3482 6.02086 38.285 7.0168C31.7453 -1.19208 18.3203 -0.171095 15.333 5.25893C3.88628 2.8039 -5.96842 15.3546 7.51466 17.6947C7.33166 19.7642 7.07212 21.849 8.05891 23.6789C22.2262 18.354 32.2088 21.0614 40.7747 26.4878Z" fill="white" stroke="#D87B09" stroke-width="0.249999"/>
<path d="M39.7783 19.3903C39.2502 20.3404 39.2849 18.5691 39.508 19.5504C39.7269 20.5158 38.0195 23.3668 36.5686 23.822L40.5935 26.1205L41.1814 24.9175L41.3626 22.5126L40.8195 19.9225L42.1777 19.9714L44.1692 19.8791L46.3425 18.3064L47.8813 16.2717L48.1983 12.7102L46.8856 10.213L44.9389 8.40928C43.1968 7.54654 41.2489 6.83717 38.2832 6.89094L34.5992 3.94465L29.7352 1.53362L26.0482 1.26172L24.2158 1.39981C24.5836 1.18168 34.3456 4.27889 37.1086 9.15656C44.1967 9.69913 49.0248 15.7994 39.7783 19.3928V19.3903Z" fill="#D9D9D9"/>
<path d="M40.8622 20.084C49.8192 21.7386 52.2622 6.64433 38.2905 6.99321C29.983 -2.72119 16.8396 1.38051 15.1489 5.35083C1.21851 4.21497 -4.14187 16.0697 7.54108 17.7646" stroke="#D87B09" stroke-linecap="round" stroke-linejoin="round"/>
<path d="M32.5643 16.4949C32.5882 16.501 32.6181 16.5133 32.645 16.5194C32.6988 16.5316 32.7527 16.5499 32.8065 16.5621C32.8603 16.5805 32.9135 16.5927 32.9673 16.6049C33.0211 16.6232 33.075 16.6354 33.1288 16.6538C33.5594 16.7802 33.9894 16.9165 34.4194 17.0625C34.8494 17.2086 35.2794 17.3638 35.7082 17.53C37.4228 18.1935 39.1249 19.0208 40.7845 20.0406C41.5542 22.3068 41.5931 24.0439 40.7151 26.3945C28.5573 17.9571 13.8997 20.9479 8.03157 23.6021C7.41438 21.7111 7.20927 19.776 7.69728 17.7658C8.17512 17.5495 8.84313 17.2953 9.67263 17.032C10.5015 16.7686 11.4913 16.4967 12.6132 16.2444C13.7352 15.9914 14.9893 15.7586 16.3463 15.5747C17.7032 15.3902 19.1631 15.254 20.6965 15.1953C20.7204 15.1953 20.7444 15.1953 20.7683 15.1953" stroke="#D87B09" stroke-linecap="round" stroke-linejoin="round"/>
<path d="M36.2096 15.8374C30.4773 16.5908 25.444 19.3318 17.1299 12.75" stroke="#D87B09" stroke-linecap="round" stroke-linejoin="round"/>
<path d="M7.94858 22.8867L7.7046 23.3267C7.69264 23.3511 7.68663 23.3633 7.68065 23.3755C7.66271 23.4061 7.65072 23.4305 7.65072 23.4366C7.61484 23.5039 7.58076 23.5704 7.54727 23.6364C7.51139 23.7036 7.48031 23.7709 7.44682 23.8381C7.41093 23.9059 7.38041 23.9743 7.34812 24.0421C7.31821 24.1093 7.28416 24.1772 7.25306 24.245C7.22316 24.3134 7.19028 24.3819 7.15918 24.4503C7.12928 24.5193 7.09812 24.5884 7.06822 24.6574C7.03831 24.7271 7.00844 24.7961 6.97974 24.8658C6.04618 27.0947 5.52465 29.5479 5.51388 32.1227C5.50192 34.6975 6.00434 37.1556 6.91936 39.3925C7.83438 41.6294 9.16321 43.6451 10.8085 45.3406C12.4537 47.0356 14.4153 48.4104 16.597 49.3641C17.1425 49.6024 17.7016 49.8144 18.2728 49.999L18.5084 50.0753L18.5203 49.9391L18.3427 49.4949L18.2099 49.1808C18.1561 49.0482 18.3015 48.9468 18.1681 48.8998C18.0347 48.8509 17.902 48.8044 17.7698 48.755C17.6376 48.7061 17.5067 48.6529 17.3757 48.5997C17.2453 48.5448 17.1155 48.4916 16.987 48.4354C14.9243 47.5335 13.0679 46.2327 11.5112 44.6288C9.95506 43.0249 8.69736 41.118 7.83257 39.0027C6.96719 36.888 6.49351 34.5655 6.50367 32.1276C6.51564 29.6891 7.00665 27.3709 7.88937 25.2635C7.91927 25.1976 7.9432 25.1322 7.97311 25.0668C8.00301 25.0014 8.03294 24.9367 8.05925 24.8719C8.08915 24.8071 8.11904 24.7424 8.14715 24.6782C8.17705 24.614 8.20754 24.5499 8.23804 24.4864C8.26794 24.4216 8.29907 24.358 8.33017 24.2957C8.36007 24.2316 8.39353 24.168 8.42522 24.1051C8.45513 24.0409 8.49039 23.978 8.52268 23.9157C8.53464 23.8912 8.54064 23.879 8.54064 23.879V23.8729V23.8668C8.5526 23.8423 8.5586 23.8362 8.5586 23.8301L8.80258 23.3908L7.94858 22.8867ZM40.9096 25.7047L39.973 26.0285L40.1321 26.5076C40.1441 26.5381 40.1561 26.5736 40.168 26.6157C40.174 26.6463 40.1859 26.6786 40.2039 26.7208C40.2159 26.7575 40.2219 26.7856 40.2338 26.8082C40.2458 26.8448 40.2578 26.8766 40.2638 26.9041C40.2757 26.9408 40.2876 26.9731 40.2936 27.0043C40.4599 27.5579 40.5999 28.1224 40.7123 28.6974C40.9378 29.8473 41.0543 31.037 41.0483 32.2559C41.0065 42.0094 33.2474 49.8712 23.7007 49.8297C23.1044 49.8297 22.5153 49.793 21.934 49.7313C21.3539 49.6684 20.7822 49.5762 20.2206 49.4564L19.7368 49.3531L19.9383 50.3472L20.0179 50.4456C20.0657 50.5067 20.1668 50.4761 20.2416 50.4884C20.3157 50.5067 20.3905 50.5189 20.4658 50.5311C20.6153 50.5617 20.766 50.5861 20.9167 50.61C21.068 50.6344 21.22 50.6588 21.3719 50.6765C21.5244 50.6949 21.6769 50.7132 21.8306 50.7316C22.4442 50.7982 23.0668 50.8336 23.6965 50.836C33.7773 50.8788 41.9951 42.5557 42.0381 32.2565C42.0441 30.9685 41.9209 29.7105 41.6823 28.4952C41.5633 27.8884 41.4161 27.2921 41.2409 26.708C41.229 26.6713 41.217 26.6352 41.2111 26.6022V26.5962C41.1991 26.5595 41.1871 26.5253 41.1811 26.4953V26.4831C41.1692 26.4404 41.1572 26.4055 41.1453 26.375C41.1393 26.3505 41.1273 26.3139 41.1153 26.2735C41.1094 26.243 41.0974 26.2112 41.0794 26.1709L40.9096 25.7047Z" fill="#D87B09"/>
<path d="M18.2402 66.8623C18.4998 67.1335 18.8928 66.8439 19.1786 67.0694C19.5004 67.7794 20.1816 68.3916 20.907 68.7069C21.2341 68.848 21.5684 68.9678 21.9087 69.0686C23.2705 69.47 24.7237 69.5538 26.1262 69.365C27.5286 69.1761 28.8808 68.7148 30.0404 68.0268C31.2007 67.3388 32.1677 66.4241 32.801 65.3292L30.4411 64.4023L18.2683 65.859L18.2402 66.8623Z" fill="#D9D9D9"/>
<path d="M34.7951 46.5117C34.8627 46.6266 34.9291 46.7408 34.9942 46.8557C35.0594 46.97 35.124 47.0848 35.1874 47.1991C35.2514 47.3134 35.3136 47.4276 35.3752 47.5413C35.6216 47.9971 35.8519 48.451 36.066 48.9013C36.2807 49.3523 36.4786 49.8002 36.6604 50.2444C36.8416 50.6886 37.0067 51.1291 37.1538 51.566C37.7441 53.3128 38.0581 54.9943 38.0611 56.5756C38.0611 58.1563 37.7579 59.6367 37.106 60.9797C36.4541 62.3233 35.4572 63.5301 34.081 64.5633C32.117 66.0389 30.7481 65.5849 32.617 62.7071C34.9632 59.0942 35.2448 56.1846 33.3568 52.3535" stroke="#D87B09" stroke-linecap="round"/>
<path d="M21.8193 57.3537C26.6354 56.2844 30.7082 57.6659 32.5747 59.0272L27.1971 58.1901L22.0054 58.4034L21.8193 57.3537Z" fill="#D9D9D9"/>
<g opacity="0.998">
<path d="M21.8737 58.624C21.9215 58.6118 21.9736 58.6056 22.0239 58.5934C22.2254 58.5506 22.4287 58.5146 22.6332 58.4785C22.8384 58.4419 23.0447 58.4095 23.2528 58.3783C26.5786 57.8834 30.2327 58.0319 32.6022 59.2484C32.5902 66.0269 28.7322 68.1404 23.9089 68.4221C19.6598 68.6708 15.5218 65.1923 15.8735 61.3656C16.1372 61.0271 16.5223 60.702 17.0044 60.3971C17.4858 60.0922 18.0635 59.8075 18.7118 59.5496C18.8739 59.4855 19.0408 59.4226 19.2112 59.3615C19.3817 59.3004 19.5563 59.2411 19.7345 59.1843C19.8236 59.1537 19.9139 59.1293 20.0048 59.0993C20.0526 59.0871 20.0963 59.0749 20.1417 59.0566" fill="white"/>
<path d="M21.8737 58.624C21.9215 58.6118 21.9736 58.6056 22.0239 58.5934C22.2254 58.5506 22.4287 58.5146 22.6332 58.4785C22.8384 58.4419 23.0447 58.4095 23.2528 58.3783C26.5786 57.8834 30.2327 58.0319 32.6022 59.2484C32.5902 66.0269 28.7322 68.1404 23.9089 68.4221C19.6598 68.6708 15.5218 65.1923 15.8735 61.3656C16.1372 61.0271 16.5223 60.702 17.0044 60.3971C17.4858 60.0922 18.0635 59.8075 18.7118 59.5496C18.8739 59.4855 19.0408 59.4226 19.2112 59.3615C19.3817 59.3004 19.5563 59.2411 19.7345 59.1843C19.8236 59.1537 19.9139 59.1293 20.0048 59.0993C20.0526 59.0871 20.0963 59.0749 20.1417 59.0566" stroke="#D87B09" stroke-linecap="round" stroke-linejoin="round"/>
</g>
<path opacity="0.998" d="M16.79 61.6221C18.095 59.9339 21.3609 59.2208 24.5378 58.8939C28.2254 58.5145 30.8412 59.1286 31.6151 59.7695C31.0619 61.2298 28.0149 62.4091 24.7764 62.8649C21.538 63.3213 18.1081 63.0543 16.79 61.6221Z" fill="#EDEDED" stroke="#EDEDED" stroke-width="0.249999"/>
<path opacity="0.998" d="M19.6117 60.3892C19.7582 59.8246 19.8856 59.2649 20.5901 58.547L17.8055 48.0095C17.5568 46.5675 19.2917 46.1539 19.6983 47.5134L21.7706 58.4602C22.7185 59.0144 23.0755 59.6718 23.4882 60.3201L24.3482 61.8281L21.4847 62.3951C21.4847 62.3951 19.9872 61.8311 19.8646 61.5061C19.7414 61.181 19.6117 60.3892 19.6117 60.3892Z" fill="#EDEDED"/>
<path d="M13.971 49.3395L11.894 52.136C10.7774 54.4291 11.4018 55.584 12.7899 56.2408C14.9016 56.9606 17.0139 57.2154 19.1257 56.9673C23.9549 56.5316 22.6212 55.5681 21.6907 55.0408L17.2711 54.062C16.7328 53.7791 15.8549 53.6507 15.6641 53.2096L16.9314 51.789C16.9314 51.789 16.8955 51.789 16.8363 51.7829C16.7765 51.7768 16.7646 51.7218 16.6868 51.7108C16.6097 51.6986 16.6689 51.5342 16.6091 51.5122C16.5481 51.4878 16.6509 51.2849 16.6449 51.2531C16.6389 51.2226 16.6808 50.8059 16.4452 50.5853C16.2077 50.3647 16.3411 49.8478 16.0283 49.5692C15.7149 49.2912 15.1994 48.748 14.965 48.5433C14.7312 48.338 13.9705 49.3419 13.9705 49.3419L13.971 49.3395Z" fill="white"/>
<path opacity="0.998" d="M17.5381 61.9915L18.7593 60.8129L19.8836 60.6681L21.984 61.0261L22.423 61.1776C22.423 61.1776 23.1681 60.6015 23.3045 60.5825C23.442 60.5642 24.2243 60.3662 24.3612 60.3473C24.4982 60.3289 25.5053 60.2422 25.5053 60.2422L26.6171 60.8257C26.6171 60.8257 27.0973 60.5581 27.2241 60.5691C27.3509 60.5813 27.8108 60.4713 27.9866 60.5324C28.1624 60.5935 28.7473 60.8954 28.7473 60.8954L28.7832 61.2748L28.7127 61.8834L24.2811 63.0534L21.1336 63.1023L18.1068 62.3911L17.5381 61.9915Z" fill="#EDEDED" stroke="#D87B09" stroke-width="0.249999"/>
<path opacity="0.998" d="M16.9131 61.7494C20.1115 64.6211 30.499 62.3433 31.5444 59.9609" stroke="#D87B09" stroke-linecap="round" stroke-linejoin="round"/>
<path opacity="0.998" d="M17.4961 61.935C19.6622 58.7095 22.5353 62.2326 24.7134 61.3857" stroke="#D87B09" stroke-linecap="round" stroke-linejoin="round"/>
<path opacity="0.998" d="M26.8112 62.3404C27.1659 61.5656 26.859 60.5483 25.6354 60.2776C24.6636 60.0619 23.4352 60.2226 22.6816 61.0848" stroke="#D87B09" stroke-linecap="round" stroke-linejoin="round"/>
<path opacity="0.998" d="M26.6289 60.7826C28.2454 59.9449 29.0929 61.1394 28.682 61.8714" stroke="#D87B09" stroke-linecap="round" stroke-linejoin="round"/>
<path opacity="0.998" d="M21.0728 59.8906C20.8037 60.1992 20.7876 60.4143 20.6494 60.7271" stroke="#D87B09" stroke-linecap="round" stroke-linejoin="round"/>
<path opacity="0.998" d="M16.9289 51.7733C16.899 51.8038 16.7081 51.9914 16.6806 52.0213C16.6507 52.0519 16.6268 52.0824 16.5993 52.1093C16.5754 52.1399 16.5455 52.1643 16.521 52.1936C16.4181 52.3036 16.323 52.4045 16.2375 52.4967C16.1514 52.589 16.0748 52.6727 16.0078 52.7491C15.9408 52.8261 15.8841 52.8957 15.8386 52.9586C15.7908 53.0222 15.759 53.0796 15.7375 53.1322C15.7136 53.1871 15.7076 53.2318 15.7136 53.2758C15.7136 53.3185 15.7375 53.3595 15.7674 53.3967C15.7973 53.4334 15.847 53.4688 15.9104 53.5024C15.9738 53.533 16.0527 53.5678 16.1484 53.599C16.2446 53.6295 16.3577 53.6619 16.4887 53.6937C16.6203 53.7242 16.7692 53.759 16.9378 53.7939C17.1065 53.8305 17.2948 53.8654 17.503 53.9057C17.7117 53.9485 17.9407 53.9888 18.1913 54.0365C18.4413 54.0853 18.7141 54.1354 19.0089 54.1929C19.3037 54.2479 19.6213 54.3126 19.9628 54.3817C22.3179 54.8589 24.234 56.2477 20.0046 56.8165C16.2363 57.3231 11.7838 56.6399 11.3586 54.7648C10.7026 51.8716 15.2543 48.1641 15.2543 48.1641" stroke="#D87B09" stroke-linecap="round"/>
<path opacity="0.998" d="M19.5858 60.4715C19.7318 59.9069 19.8597 59.3466 20.5642 58.6293L20.3902 57.9706L20.2162 57.312L20.1743 57.147L20.1325 56.9826L20.0906 56.8177M19.4376 54.348L19.3508 54.0186L19.1768 53.3606L18.48 50.7259L17.7839 48.0919C17.5358 46.6493 19.2707 46.2362 19.6774 47.5951L20.1953 50.3318L20.7138 53.0685L20.843 53.7529L20.9727 54.4372M21.3609 56.4896L21.4907 57.1739L21.6204 57.8582L21.7496 58.5425C22.6975 59.0961 23.0545 59.7536 23.4672 60.4018" stroke="#D87B09" stroke-linecap="round" stroke-linejoin="round"/>
<path d="M16.943 51.1641C16.8832 51.1641 16.8281 51.1763 16.7755 51.2007C16.5757 51.2899 16.4843 51.5282 16.5722 51.7329C16.6685 51.9571 16.7725 52.6231 16.8108 53.4388C16.8167 53.5384 16.8227 53.6411 16.8227 53.7462C16.8287 53.9692 17.0111 54.1452 17.2294 54.1391C17.4477 54.133 17.6199 53.9466 17.6139 53.7236C17.6139 53.6123 17.608 53.503 17.602 53.3961C17.5601 52.548 17.5003 51.8783 17.2982 51.4072C17.2366 51.2631 17.0984 51.1683 16.9441 51.1653L16.943 51.1641ZM33.3583 51.6321C33.1717 51.6321 33.0096 51.7653 32.9701 51.9522C32.9061 52.259 32.8404 52.6231 32.7734 53.0307C32.7064 53.4382 32.6388 53.8892 32.5718 54.3688C32.5054 54.8478 32.439 55.3562 32.3757 55.8774C32.3123 56.3992 32.2518 56.9332 32.1956 57.466C32.1418 57.9982 32.088 58.5285 32.0431 59.0418C32.0371 59.1108 32.0312 59.1731 32.0252 59.2281C32.0133 59.3393 32.3344 59.277 32.3984 59.3546C32.4629 59.4346 32.271 59.6595 32.3805 59.6705C32.5976 59.6949 32.7913 59.5306 32.8128 59.3082C32.8188 59.2379 32.8248 59.1738 32.8308 59.1163C32.8786 58.6086 32.9271 58.0831 32.9821 57.5546C33.0359 57.0267 33.0981 56.4963 33.1609 55.9794C33.2237 55.4625 33.2889 54.959 33.3546 54.4849C33.421 54.0107 33.4874 53.5666 33.5532 53.167C33.619 52.768 33.6836 52.4136 33.744 52.1233C33.7918 51.9052 33.6531 51.6901 33.4396 51.6437C33.4157 51.6376 33.3858 51.6376 33.3583 51.6376V51.6321ZM17.1851 56.6014C16.9746 56.6014 16.8036 56.7762 16.7958 56.9912C16.7898 57.2399 16.7779 57.4868 16.7659 57.7306C16.754 57.9737 16.742 58.2126 16.73 58.4436C16.718 58.6758 16.7061 58.9012 16.6942 59.1175C16.6822 59.3326 16.6702 59.541 16.6582 59.7389C16.6463 59.9351 16.6344 60.119 16.6284 60.2876C16.6224 60.3756 16.6164 60.4581 16.6104 60.5345C16.6044 60.6463 16.6403 60.7495 16.7091 60.8265C16.7766 60.9041 16.8377 60.634 16.9471 60.634C17.1546 60.634 17.236 60.5418 17.3574 60.4556C17.3574 60.3768 17.4112 60.4251 17.4172 60.342C17.4232 60.2558 17.4292 60.166 17.4352 60.0738C17.4411 59.9815 17.453 59.8862 17.453 59.7878C17.465 59.5935 17.477 59.3858 17.489 59.167C17.5009 58.9495 17.5128 58.7228 17.5248 58.4894C17.5368 58.2548 17.5488 58.0147 17.5607 57.7703C17.5727 57.5253 17.5786 57.2766 17.5906 57.0248C17.5966 56.8018 17.4279 56.6142 17.2096 56.6063H17.1917L17.1851 56.6014ZM16.3251 63.7746C16.2564 63.8296 16.2062 63.9109 16.1864 64.0044C16.1625 64.115 16.1385 64.2256 16.114 64.3374C16.0901 64.4486 16.0602 64.5598 16.0362 64.6716C16.0123 64.784 15.9825 64.8964 15.9538 65.0089C15.8407 65.4598 15.7151 65.9162 15.5781 66.3775C15.0309 68.2228 14.3073 70.1438 13.5179 72.0867C12.7279 74.0291 11.8726 75.9929 11.0641 77.9274C10.7327 78.7186 10.5288 79.3541 10.4493 79.8875C10.3698 80.4209 10.4134 80.8816 10.6592 81.2366C10.9026 81.591 11.3039 81.7645 11.7423 81.828C12.18 81.8922 12.6854 81.8647 13.2745 81.7914C14.0215 81.7009 14.6213 81.1584 15.2552 80.4875C15.8886 79.816 16.5614 78.9783 17.3681 78.1601C18.9799 76.5251 21.085 74.9713 24.4269 74.9719C27.7186 75.0208 29.7472 76.6681 31.4194 78.3777C32.2554 79.2331 32.9905 80.1019 33.7458 80.7832C34.5005 81.4651 35.3013 81.9765 36.2433 81.9961C37.0776 82.0144 37.6648 81.9411 38.1062 81.7474C38.547 81.5513 38.8334 81.1474 38.8585 80.73C38.8824 80.3127 38.7318 79.9223 38.5332 79.5148C38.3347 79.1078 38.0745 78.6838 37.8149 78.2493C36.1368 75.4405 34.5005 72.2572 33.5287 68.6028C33.4073 68.1464 33.2967 67.682 33.1974 67.2103C33.0981 66.7386 33.0096 66.259 32.9349 65.772C32.899 65.5282 32.8631 65.2826 32.832 65.0351C32.8021 64.8139 32.6795 65.0993 32.4624 65.128C32.2459 65.1586 32.0193 64.9166 32.0468 65.1341C32.0767 65.3895 32.1143 65.6425 32.1532 65.8936C32.2304 66.3959 32.3212 66.8902 32.4235 67.3765C32.5257 67.8623 32.6406 68.3401 32.7656 68.8105C33.7649 72.5713 35.4419 75.8249 37.1398 78.6661C37.4017 79.1042 37.6516 79.5166 37.8245 79.871C37.9973 80.2247 38.0775 80.5205 38.0685 80.6763C38.0626 80.8327 38.0446 80.8889 37.7904 81.0013C37.5368 81.1138 37.0357 81.1999 36.2588 81.184C35.5902 81.1718 34.9634 80.7997 34.2691 80.1728C33.5754 79.5465 32.8398 78.6826 31.9792 77.8021C30.2574 76.0418 27.9865 74.2106 24.4359 74.1593H24.4299C20.8422 74.1593 18.4925 75.8762 16.8096 77.5827C15.9681 78.4363 15.2834 79.2881 14.6847 79.9223C14.0867 80.5565 13.5801 80.9366 13.1812 80.9848C12.6244 81.052 12.1699 81.068 11.8535 81.0215C11.5366 80.9726 11.3882 80.8852 11.3063 80.7661C11.2238 80.6463 11.1682 80.4221 11.231 80.0023C11.2932 79.582 11.4743 78.9948 11.7907 78.2383C12.5963 76.3118 13.4527 74.345 14.2475 72.3898C15.0423 70.4346 15.7755 68.491 16.3347 66.6054C16.4746 66.1343 16.6038 65.6663 16.7199 65.2026C16.7498 65.0871 16.7797 64.9716 16.8042 64.8567C16.8341 64.7412 16.858 64.6258 16.8843 64.5115C16.9083 64.3966 16.8664 64.542 16.8364 64.429C16.8125 64.3355 16.6636 64.1681 16.5464 63.9433C16.4232 63.9127 16.4142 63.6952 16.3227 63.7691L16.3251 63.7746Z" fill="#D87B09"/>
</svg>
