<svg width="44" height="45" viewBox="0 0 44 45" fill="none" xmlns="http://www.w3.org/2000/svg">
<g clip-path="url(#clip0_282_11859)">
<path d="M22 28.125C25.1066 28.125 27.625 25.6066 27.625 22.5C27.625 19.3934 25.1066 16.875 22 16.875C18.8934 16.875 16.375 19.3934 16.375 22.5C16.375 25.6066 18.8934 28.125 22 28.125Z" stroke="#D87B09" stroke-width="2" stroke-linecap="round" stroke-linejoin="round"/>
<path d="M28.1875 9.5625H15.8125C12.0846 9.5625 9.0625 12.5846 9.0625 16.3125V28.6875C9.0625 32.4154 12.0846 35.4375 15.8125 35.4375H28.1875C31.9154 35.4375 34.9375 32.4154 34.9375 28.6875V16.3125C34.9375 12.5846 31.9154 9.5625 28.1875 9.5625Z" stroke="#D87B09" stroke-width="2" stroke-linecap="round" stroke-linejoin="round"/>
<path d="M29.3125 16.5938C30.0892 16.5938 30.7188 15.9642 30.7188 15.1875C30.7188 14.4108 30.0892 13.7812 29.3125 13.7812C28.5358 13.7812 27.9062 14.4108 27.9062 15.1875C27.9062 15.9642 28.5358 16.5938 29.3125 16.5938Z" fill="#D87B09"/>
</g>
<defs>
<clipPath id="clip0_282_11859">
<rect width="36" height="36" fill="white" transform="translate(4 4.5)"/>
</clipPath>
</defs>
</svg>
