<svg width="44" height="45" viewBox="0 0 44 45" fill="none" xmlns="http://www.w3.org/2000/svg">
<g clip-path="url(#clip0_282_11866)">
<path d="M31.6365 10.5H12.3635C8.85458 10.5 6 13.4232 6 17.0163V27.9837C6 31.5768 8.85458 34.5 12.3635 34.5H31.6365C35.1454 34.5 38 31.5768 38 27.9837V17.0163C38 13.4232 35.1454 10.5 31.6365 10.5ZM36.6939 27.9837C36.6939 30.8415 34.4251 33.1667 31.6365 33.1667H12.3635C9.57491 33.1667 7.30612 30.8415 7.30612 27.9837V17.0163C7.30612 14.1585 9.57491 11.8333 12.3635 11.8333H31.6365C34.4251 11.8333 36.6939 14.1585 36.6939 17.0163V27.9837Z" fill="#D87B09"/>
<path d="M27.7864 22.2592L18.7382 16.849C18.5373 16.729 18.2867 16.727 18.0835 16.8458C17.8804 16.9646 17.7551 17.1853 17.7551 17.4242V28.2433C17.7551 28.4822 17.8804 28.7029 18.0832 28.8217C18.1839 28.8806 18.2962 28.91 18.4082 28.91C18.5223 28.91 18.6361 28.8794 18.7382 28.8185L27.7864 23.4096C27.9863 23.2902 28.1094 23.0711 28.1094 22.8344C28.1094 22.5977 27.9866 22.3787 27.7864 22.2592ZM19.0612 27.0802V18.5874L26.1639 22.8344L19.0612 27.0802Z" fill="#D87B09"/>
</g>
<defs>
<clipPath id="clip0_282_11866">
<rect width="32" height="24" fill="white" transform="translate(6 10.5)"/>
</clipPath>
</defs>
</svg>
