<svg width="44" height="44" viewBox="0 0 44 44" fill="none" xmlns="http://www.w3.org/2000/svg">
<path d="M6 31C6 27.625 10.3636 27.625 12.5455 25.375C13.6364 24.25 10.3636 24.25 10.3636 18.625C10.3636 14.8754 11.8178 13 14.7273 13C17.6367 13 19.0909 14.8754 19.0909 18.625C19.0909 24.25 15.8182 24.25 16.9091 25.375C19.0909 27.625 23.4545 27.625 23.4545 31M23.1517 27.59C23.8677 27.3224 24.4545 27.0749 24.9122 26.8477C25.7131 26.4498 26.4859 25.9989 27.0909 25.375C28.1818 24.25 24.9091 24.25 24.9091 18.625C24.9091 14.8754 26.3633 13 29.2727 13C32.1822 13 33.6364 14.8754 33.6364 18.625C33.6364 24.25 30.3636 24.25 31.4545 25.375C33.6364 27.625 38 27.625 38 31" stroke="#17522D" stroke-width="2" stroke-linecap="square"/>
<path d="M22 29.3331C22.6715 29.1064 23.1554 28.9394 23.4517 28.832" stroke="#17522D" stroke-width="2" stroke-linecap="round"/>
</svg>
